<?xml version="1.0" encoding="UTF-8"?>
<svg width="8px" height="10px" viewBox="0 0 8 10" version="1.1" xmlns="http://www.w3.org/2000/svg" xmlns:xlink="http://www.w3.org/1999/xlink">
    <!-- Generator: Sketch 55.2 (78181) - https://sketchapp.com -->
    <title>Combined Shape</title>
    <desc>Created with Sketch.</desc>
    <g id="Page-1" stroke="none" stroke-width="1" fill="none" fill-rule="evenodd">
        <g id="Knowledge-Card-Designs---Jan-16" transform="translate(-2806.000000, -352.000000)" fill="#797AA9" fill-rule="nonzero">
            <g id="Group-20-Copy-6" transform="translate(2536.000000, 103.000000)">
                <g id="Group-35">
                    <g id="Group-48-Copy-2">
                        <g id="Group-37-Copy">
                            <g id="Group-Copy-3">
                                <g id="Group-54" transform="translate(32.000000, 222.000000)">
                                    <g id="Group-55">
                                        <g id="Group-40" transform="translate(16.000000, 16.000000)">
                                            <g id="Group-39">
                                                <g id="Group-38" transform="translate(210.000000, 0.000000)">
                                                    <g id="Undo">
                                                        <path d="M17.4619141,15.7714844 C18.0133491,15.9173184 18.4303371,16.1964498 18.7128906,16.6088867 C18.9954441,17.0213237 19.1367188,17.4986952 19.1367188,18.0410156 C19.1367188,18.9843797 18.8336619,19.7055639 18.2275391,20.2045898 C17.6214162,20.7036158 16.7692112,20.953125 15.6708984,20.953125 L12,20.953125 L12,11 L15.4179688,11 C16.5390681,11 17.4003876,11.2221657 18.0019531,11.6665039 C18.6035186,12.1108421 18.9042969,12.7864538 18.9042969,13.6933594 C18.9042969,14.1582054 18.7801119,14.5729148 18.5317383,14.9375 C18.2833646,15.3020852 17.9267601,15.5800772 17.4619141,15.7714844 Z M13.7705078,12.4287109 L13.7705078,15.1835938 L15.4316406,15.1835938 C15.973961,15.1835938 16.394367,15.0628267 16.6928711,14.8212891 C16.9913752,14.5797514 17.140625,14.2402366 17.140625,13.8027344 C17.140625,13.319659 17.001629,12.9698904 16.7236328,12.753418 C16.4456366,12.5369455 16.0104196,12.4287109 15.4179688,12.4287109 L13.7705078,12.4287109 Z M15.6708984,19.53125 C16.2177762,19.53125 16.6381821,19.3956719 16.9321289,19.1245117 C17.2260757,18.8533515 17.3730469,18.4921898 17.3730469,18.0410156 C17.3730469,17.0019479 16.8307346,16.4824219 15.7460938,16.4824219 L13.7705078,16.4824219 L13.7705078,19.53125 L15.6708984,19.53125 Z" id="Combined-Shape"></path>
                                                    </g>
                                                </g>
                                            </g>
                                        </g>
                                    </g>
                                </g>
                            </g>
                        </g>
                    </g>
                </g>
            </g>
        </g>
    </g>
</svg>