<?xml version="1.0" encoding="UTF-8"?>
<svg width="13px" height="12px" viewBox="0 0 13 12" version="1.1" xmlns="http://www.w3.org/2000/svg" xmlns:xlink="http://www.w3.org/1999/xlink">
    <!-- Generator: Sketch 55.2 (78181) - https://sketchapp.com -->
    <title>Shape</title>
    <desc>Created with Sketch.</desc>
    <g id="Page-1" stroke="none" stroke-width="1" fill="none" fill-rule="evenodd">
        <g id="Knowledge-Card-Designs---Jan-16" transform="translate(-2972.000000, -351.000000)" fill="#797AA9" fill-rule="nonzero">
            <g id="Group-20-Copy-6" transform="translate(2536.000000, 103.000000)">
                <g id="Group-35">
                    <g id="Group-48-Copy-2">
                        <g id="Group-37-Copy">
                            <g id="Group-Copy-3">
                                <g id="Group-54" transform="translate(32.000000, 222.000000)">
                                    <g id="Group-55">
                                        <g id="Group-40" transform="translate(16.000000, 16.000000)">
                                            <g id="Group-39">
                                                <g id="Group-38" transform="translate(210.000000, 0.000000)">
                                                    <g id="Undo-Copy-4" transform="translate(168.000000, 0.000000)">
                                                        <g id="format-color-fill" transform="translate(10.000000, 10.000000)">
                                                            <path d="M11.2958824,8.11764706 C11.2958824,8.11764706 9.88411765,9.64941176 9.88411765,10.5882353 C9.88411765,11.3679314 10.5161862,12 11.2958824,12 C12.0755785,12 12.7076471,11.3679314 12.7076471,10.5882353 C12.7076471,9.64941176 11.2958824,8.11764706 11.2958824,8.11764706 M1.56176471,7.05882353 L4.94294118,3.67764706 L8.32411765,7.05882353 M9.57352941,6.31058824 L3.26294118,0 L2.26764706,0.995294118 L3.94764706,2.67529412 L0.312352941,6.31058824 C-0.104117647,6.70588235 -0.104117647,7.39058824 0.312352941,7.80705882 L4.19470588,11.6894118 C4.39941176,11.8941176 4.67470588,12 4.94294118,12 C5.21117647,12 5.48647059,11.8941176 5.69117647,11.6894118 L9.57352941,7.80705882 C9.99,7.39058824 9.99,6.70588235 9.57352941,6.31058824 Z" id="Shape"></path>
                                                        </g>
                                                    </g>
                                                </g>
                                            </g>
                                        </g>
                                    </g>
                                </g>
                            </g>
                        </g>
                    </g>
                </g>
            </g>
        </g>
    </g>
</svg>