<?xml version="1.0" encoding="UTF-8"?>
<svg width="8px" height="12px" viewBox="0 0 8 12" version="1.1" xmlns="http://www.w3.org/2000/svg" xmlns:xlink="http://www.w3.org/1999/xlink">
    <!-- Generator: Sketch 55.2 (78181) - https://sketchapp.com -->
    <title>Group 74</title>
    <desc>Created with Sketch.</desc>
    <g id="Page-1" stroke="none" stroke-width="1" fill="none" fill-rule="evenodd">
        <g id="Knowledge-Card-Designs---Jan-16" transform="translate(-2890.000000, -352.000000)" fill-rule="nonzero">
            <g id="Group-20-Copy-6" transform="translate(2536.000000, 103.000000)">
                <g id="Group-35">
                    <g id="Group-48-Copy-2">
                        <g id="Group-37-Copy">
                            <g id="Group-Copy-3">
                                <g id="Group-54" transform="translate(32.000000, 222.000000)">
                                    <g id="Group-55">
                                        <g id="Group-40" transform="translate(16.000000, 16.000000)">
                                            <g id="Group-39">
                                                <g id="Group-38" transform="translate(210.000000, 0.000000)">
                                                    <g id="Undo-Copy-2" transform="translate(84.000000, 0.000000)">
                                                        <g id="Group-74" transform="translate(12.000000, 11.000000)">
                                                            <path d="M4,9 C6.209139,9 8,7.27309832 8,5.14285714 L8,0 L6.33333333,0 L6.33333333,5.14285714 C6.33333333,6.38549783 5.28866442,7.39285714 4,7.39285714 C2.71133558,7.39285714 1.66666667,6.38549783 1.66666667,5.14285714 L1.66666667,0 L0,0 L0,5.14285714 C0,7.27309832 1.790861,9 4,9 Z" id="Shape" fill="#797AA9"></path>
                                                            <polygon id="Path" fill="#1B1C1C" opacity="0.199999988" points="8 12 8 11 0 11 0 12"></polygon>
                                                        </g>
                                                    </g>
                                                </g>
                                            </g>
                                        </g>
                                    </g>
                                </g>
                            </g>
                        </g>
                    </g>
                </g>
            </g>
        </g>
    </g>
</svg>